<svg xmlns="http://www.w3.org/2000/svg" width="29.694" height="23.793" viewBox="0 0 29.694 23.793">
    <g>
        <path fill="#707070" fill-rule="evenodd" d="M29.2 7.763a6.035 6.035 0 0 0 2.675-3.323 12.243 12.243 0 0 1-3.869 1.46A6.121 6.121 0 0 0 23.558 4a6.052 6.052 0 0 0-6.093 6.006 5.925 5.925 0 0 0 .161 1.371A17.385 17.385 0 0 1 5.067 5.1a5.887 5.887 0 0 0-.822 3.02 5.982 5.982 0 0 0 2.71 5 6.152 6.152 0 0 1-2.755-.755v.077a6.03 6.03 0 0 0 4.888 5.889 6.207 6.207 0 0 1-2.751.106 6.087 6.087 0 0 0 5.689 4.169 12.325 12.325 0 0 1-7.564 2.572A12.268 12.268 0 0 1 3 25.094a17.422 17.422 0 0 0 9.341 2.7A17.086 17.086 0 0 0 29.672 10.7q0-.389-.015-.778a12.288 12.288 0 0 0 3.037-3.107 12.414 12.414 0 0 1-3.5.944" transform="translate(-3 -4)"/>
    </g>
</svg>
