<svg xmlns="http://www.w3.org/2000/svg" id="구성_요소_23_1" width="347.122" height="79.332" viewBox="0 0 347.122 79.332">
    <defs>
        <style>
            .cls-1{fill:#1a1311}.cls-2{fill:#e9590d}.cls-3{fill:#a6c200}
        </style>
    </defs>
    <path id="패스_66" d="M227.712 432.423H208.5l-4.563 11.98h-7.81l17.973-47.987h7.948l17.966 47.984h-7.74zm-16.726-6.623h14.237l-7.123-20.121z" class="cls-1" transform="translate(-124.562 -380.948)"/>
    <path id="사각형_306" d="M0 0H7.342V47.986H0z" class="cls-1" transform="translate(120.621 15.468)"/>
    <path id="사각형_307" d="M0 0H7.343V47.986H0z" class="cls-1" transform="translate(136.49 15.468)"/>
    <path id="패스_67" d="M307.4 430.681l-25.545-.026c.683 4.964 4.65 8.066 9.78 8.066 3.558 0 7.046-1.657 8.688-4.62 1.779.827 4.036 1.8 5.9 2.639-2.834 5.71-8.846 8.358-14.929 8.358-9.192 0-16.587-6.754-16.587-17.063s7.4-16.855 16.587-16.855 16.175 6.547 16.175 16.855c0 .766 0 1.95-.07 2.646m-7.009-5.363c-.682-5.033-4.308-7.759-9.1-7.759-4.924 0-8.755 2.8-9.438 7.759z" class="cls-1" transform="translate(-124.562 -380.948)"/>
    <path id="패스_68" d="M323.083 460.28h-7.464l6.98-17.411-12.785-30.992h7.824l8.763 22.285 9.054-22.285h7.6z" class="cls-1" transform="translate(-124.562 -380.948)"/>
    <path id="패스_69" d="M384.941 444.4h-5.875l-8.224-23.052-7.88 23.052h-5.807l-12.164-32.524h7.6l7.464 21.937 7.465-21.937h6.635l7.464 21.937 7.535-21.937h7.6z" class="cls-1" transform="translate(-124.562 -380.948)"/>
    <path id="패스_70" d="M425.961 439.735c-2.143 3.552-6.842 5.363-10.852 5.363-8.708 0-16.378-6.617-16.378-16.994s7.67-16.924 16.378-16.924c3.87 0 8.64 1.6 10.852 5.3v-4.6h7.049v32.52h-7.049zm-10.023-1.6c5.254 0 9.843-3.691 9.843-10.1a9.863 9.863 0 1 0-19.726 0 9.778 9.778 0 0 0 9.883 10.1" class="cls-1" transform="translate(-124.562 -380.948)"/>
    <path id="패스_71" d="M451.71 460.28h-7.466l6.981-17.411-12.785-30.992h7.825l8.762 22.285 9.054-22.285h7.6z" class="cls-1" transform="translate(-124.562 -380.948)"/>
    <path id="패스_72" d="M137.045 434.486l-1.823-18.306-8.938 4.23v32.1h4.706z" class="cls-2" transform="translate(-124.562 -380.948)"/>
    <path id="패스_73" d="M132.341 388.313h-6.058V418.4l8.741-4.135z" class="cls-3" transform="translate(-124.562 -380.948)"/>
    <path id="패스_74" fill="#00a1b7" d="M145.507 409.3l1.563-4.653h11.92l4.01 11.928 3.8-9.2-18.917-19.065h-13.811l2.6 25.167z" transform="translate(-124.562 -380.948)"/>
    <path id="패스_75" d="M138.376 430.526L144.7 411.7l-7.837 3.678z" class="cls-1" transform="translate(-124.562 -380.948)"/>
    <path id="패스_76" d="M163.833 419.062l7.108 21.152 8.838-7.5v-12.153l-11.67-11.851z" class="cls-1" transform="translate(-124.562 -380.948)"/>
    <path id="패스_77" fill="#d91a7a" d="M179.777 418.107v-29.794h-3.384l-7.571 18.67z" transform="translate(-124.562 -380.948)"/>
    <path id="패스_78" d="M174.535 388.313H150.3l17.2 17.327z" class="cls-3" transform="translate(-124.562 -380.948)"/>
    <path id="패스_79" d="M171.531 441.97l3.54 10.535h4.706v-17.527z" class="cls-2" transform="translate(-124.562 -380.948)"/>
    <path id="패스_80" fill="#fff" d="M124.562 386.591v67.635h7.666l16.087-47.869h9.432l16.086 47.869h7.667v-67.635zm49.973 1.722L167.5 405.64l-17.2-17.327zm-48.251 0h6.058l2.682 25.947-8.74 4.137zm4.707 64.192h-4.707v-32.1l8.939-4.229 1.821 18.306zm5.877-37.13l7.835-3.68-6.327 18.832zm22.122-10.725h-11.92l-1.563 4.654-8.834 4.177-2.6-25.168h13.807l18.92 19.065-3.8 9.2zm20.787 47.855h-4.707l-3.538-10.535 8.245-6.992zm0-19.788l-8.837 7.5-7.107-21.151 4.275-10.352 11.669 11.849zm0-14.61l-10.955-11.125 7.571-18.669h3.384z" transform="translate(-124.562 -380.948)"/>
    <g id="그룹_304" transform="translate(-124.562 -380.948)">
        <path id="패스_81" d="M350.063 381.162h2.824v18.356h-2.824z" class="cls-1"/>
        <path id="패스_82" d="M372.628 399.518h-2.637l-7.886-13.135v13.135h-2.824v-18.356H362l7.8 13.028v-13.028h2.824z" class="cls-1"/>
        <path id="패스_83" d="M394.289 396.4a8.877 8.877 0 0 1-7.141 3.384 9.42 9.42 0 0 1 0-18.837 8.977 8.977 0 0 1 7.087 3.3l-2.184 1.7a6.58 6.58 0 1 0-4.9 11.11 6.252 6.252 0 0 0 4.956-2.4z" class="cls-1"/>
        <path id="패스_84" d="M412.831 381.162v18.356h-2.877v-7.833h-8.286v7.833h-2.824v-18.356h2.824v7.938h8.286v-7.939z" class="cls-1"/>
        <path id="패스_85" d="M419.225 381.162h11.056v2.611h-8.232v5.435h7.193v2.584h-7.193v5.142h8.5v2.584h-11.324z" class="cls-1"/>
        <path id="패스_86" d="M443.655 380.948a9.42 9.42 0 1 1-9.271 9.432 9.308 9.308 0 0 1 9.271-9.432zm0 16.066a6.651 6.651 0 1 0-6.447-6.634 6.5 6.5 0 0 0 6.447 6.634z" class="cls-1"/>
        <path id="패스_87" d="M471.576 399.518h-2.637l-7.887-13.135v13.135h-2.823v-18.356h2.717l7.806 13.028v-13.028h2.824z" class="cls-1"/>
    </g>
</svg>
